<svg width="93" height="78" viewBox="0 0 93 78" fill="none" xmlns="http://www.w3.org/2000/svg">
<g opacity="0.3">
<mask id="mask0_1_71" style="mask-type:alpha" maskUnits="userSpaceOnUse" x="0" y="0" width="9" height="8">
<path d="M4.36802 7.97735C6.69931 7.97735 8.5892 6.19152 8.5892 3.98865C8.5892 1.78577 6.69931 0 4.36802 0C2.03673 0 0.146851 1.78577 0.146851 3.98865C0.146851 6.19152 2.03673 7.97735 4.36802 7.97735Z" fill="url(#paint0_linear_1_71)"/>
</mask>
<g mask="url(#mask0_1_71)">
<path d="M4.36802 7.97735C6.69931 7.97735 8.5892 6.19152 8.5892 3.98865C8.5892 1.78577 6.69931 0 4.36802 0C2.03673 0 0.146851 1.78577 0.146851 3.98865C0.146851 6.19152 2.03673 7.97735 4.36802 7.97735Z" fill="url(#paint1_linear_1_71)"/>
</g>
<mask id="mask1_1_71" style="mask-type:alpha" maskUnits="userSpaceOnUse" x="24" y="0" width="10" height="8">
<path d="M28.8153 7.97735C31.1466 7.97735 33.0365 6.19152 33.0365 3.98865C33.0365 1.78577 31.1466 0 28.8153 0C26.484 0 24.5941 1.78577 24.5941 3.98865C24.5941 6.19152 26.484 7.97735 28.8153 7.97735Z" fill="url(#paint2_linear_1_71)"/>
</mask>
<g mask="url(#mask1_1_71)">
<path d="M28.8157 7.97735C31.147 7.97735 33.0368 6.19152 33.0368 3.98865C33.0368 1.78577 31.147 0 28.8157 0C26.4844 0 24.5945 1.78577 24.5945 3.98865C24.5945 6.19152 26.4844 7.97735 28.8157 7.97735Z" fill="url(#paint3_linear_1_71)"/>
</g>
<mask id="mask2_1_71" style="mask-type:alpha" maskUnits="userSpaceOnUse" x="49" y="0" width="9" height="8">
<path d="M53.2625 7.97735C55.5938 7.97735 57.4837 6.19152 57.4837 3.98865C57.4837 1.78577 55.5938 0 53.2625 0C50.9312 0 49.0413 1.78577 49.0413 3.98865C49.0413 6.19152 50.9312 7.97735 53.2625 7.97735Z" fill="url(#paint4_linear_1_71)"/>
</mask>
<g mask="url(#mask2_1_71)">
<path d="M53.2632 7.97735C55.5945 7.97735 57.4844 6.19152 57.4844 3.98865C57.4844 1.78577 55.5945 0 53.2632 0C50.9319 0 49.042 1.78577 49.042 3.98865C49.042 6.19152 50.9319 7.97735 53.2632 7.97735Z" fill="url(#paint5_linear_1_71)"/>
</g>
<mask id="mask3_1_71" style="mask-type:alpha" maskUnits="userSpaceOnUse" x="73" y="0" width="9" height="8">
<path d="M77.7096 7.97735C80.0409 7.97735 81.9308 6.19152 81.9308 3.98865C81.9308 1.78577 80.0409 0 77.7096 0C75.3783 0 73.4884 1.78577 73.4884 3.98865C73.4884 6.19152 75.3783 7.97735 77.7096 7.97735Z" fill="url(#paint6_linear_1_71)"/>
</mask>
<g mask="url(#mask3_1_71)">
<path d="M77.7102 7.97735C80.0415 7.97735 81.9314 6.19152 81.9314 3.98865C81.9314 1.78577 80.0415 0 77.7102 0C75.3789 0 73.489 1.78577 73.489 3.98865C73.489 6.19152 75.3789 7.97735 77.7102 7.97735Z" fill="url(#paint7_linear_1_71)"/>
</g>
<mask id="mask4_1_71" style="mask-type:alpha" maskUnits="userSpaceOnUse" x="0" y="20" width="9" height="9">
<path d="M4.36802 28.0037C6.69931 28.0037 8.5892 26.2179 8.5892 24.015C8.5892 21.8122 6.69931 20.0264 4.36802 20.0264C2.03673 20.0264 0.146851 21.8122 0.146851 24.015C0.146851 26.2179 2.03673 28.0037 4.36802 28.0037Z" fill="url(#paint8_linear_1_71)"/>
</mask>
<g mask="url(#mask4_1_71)">
<path d="M4.36802 28.0037C6.69931 28.0037 8.5892 26.218 8.5892 24.0151C8.5892 21.8122 6.69931 20.0265 4.36802 20.0265C2.03673 20.0265 0.146851 21.8122 0.146851 24.0151C0.146851 26.218 2.03673 28.0037 4.36802 28.0037Z" fill="url(#paint9_linear_1_71)"/>
</g>
<mask id="mask5_1_71" style="mask-type:alpha" maskUnits="userSpaceOnUse" x="24" y="20" width="10" height="9">
<path d="M28.8153 28.0038C31.1466 28.0038 33.0365 26.218 33.0365 24.0151C33.0365 21.8123 31.1466 20.0265 28.8153 20.0265C26.484 20.0265 24.5941 21.8123 24.5941 24.0151C24.5941 26.218 26.484 28.0038 28.8153 28.0038Z" fill="url(#paint10_linear_1_71)"/>
</mask>
<g mask="url(#mask5_1_71)">
<path d="M28.8157 28.0037C31.147 28.0037 33.0368 26.2179 33.0368 24.0151C33.0368 21.8122 31.147 20.0264 28.8157 20.0264C26.4844 20.0264 24.5945 21.8122 24.5945 24.0151C24.5945 26.2179 26.4844 28.0037 28.8157 28.0037Z" fill="url(#paint11_linear_1_71)"/>
</g>
<mask id="mask6_1_71" style="mask-type:alpha" maskUnits="userSpaceOnUse" x="49" y="20" width="9" height="9">
<path d="M53.2625 28.0038C55.5938 28.0038 57.4837 26.218 57.4837 24.0151C57.4837 21.8123 55.5938 20.0265 53.2625 20.0265C50.9312 20.0265 49.0413 21.8123 49.0413 24.0151C49.0413 26.218 50.9312 28.0038 53.2625 28.0038Z" fill="url(#paint12_linear_1_71)"/>
</mask>
<g mask="url(#mask6_1_71)">
<path d="M53.2632 28.0037C55.5945 28.0037 57.4844 26.2179 57.4844 24.0151C57.4844 21.8122 55.5945 20.0264 53.2632 20.0264C50.9319 20.0264 49.042 21.8122 49.042 24.0151C49.042 26.2179 50.9319 28.0037 53.2632 28.0037Z" fill="url(#paint13_linear_1_71)"/>
</g>
<mask id="mask7_1_71" style="mask-type:alpha" maskUnits="userSpaceOnUse" x="73" y="20" width="9" height="9">
<path d="M77.7096 28.0038C80.0409 28.0038 81.9308 26.218 81.9308 24.0151C81.9308 21.8123 80.0409 20.0265 77.7096 20.0265C75.3783 20.0265 73.4884 21.8123 73.4884 24.0151C73.4884 26.218 75.3783 28.0038 77.7096 28.0038Z" fill="url(#paint14_linear_1_71)"/>
</mask>
<g mask="url(#mask7_1_71)">
<path d="M77.7102 28.0037C80.0415 28.0037 81.9314 26.2179 81.9314 24.0151C81.9314 21.8122 80.0415 20.0264 77.7102 20.0264C75.3789 20.0264 73.489 21.8122 73.489 24.0151C73.489 26.2179 75.3789 28.0037 77.7102 28.0037Z" fill="url(#paint15_linear_1_71)"/>
</g>
<mask id="mask8_1_71" style="mask-type:alpha" maskUnits="userSpaceOnUse" x="0" y="40" width="9" height="8">
<path d="M4.36802 47.9887C6.69931 47.9887 8.5892 46.2029 8.5892 44C8.5892 41.7971 6.69931 40.0113 4.36802 40.0113C2.03673 40.0113 0.146851 41.7971 0.146851 44C0.146851 46.2029 2.03673 47.9887 4.36802 47.9887Z" fill="url(#paint16_linear_1_71)"/>
</mask>
<g mask="url(#mask8_1_71)">
<path d="M4.36802 47.9888C6.69931 47.9888 8.5892 46.203 8.5892 44.0001C8.5892 41.7972 6.69931 40.0114 4.36802 40.0114C2.03673 40.0114 0.146851 41.7972 0.146851 44.0001C0.146851 46.203 2.03673 47.9888 4.36802 47.9888Z" fill="url(#paint17_linear_1_71)"/>
</g>
<mask id="mask9_1_71" style="mask-type:alpha" maskUnits="userSpaceOnUse" x="24" y="40" width="10" height="8">
<path d="M28.8153 47.9889C31.1466 47.9889 33.0365 46.2032 33.0365 44.0003C33.0365 41.7974 31.1466 40.0116 28.8153 40.0116C26.484 40.0116 24.5941 41.7974 24.5941 44.0003C24.5941 46.2032 26.484 47.9889 28.8153 47.9889Z" fill="url(#paint18_linear_1_71)"/>
</mask>
<g mask="url(#mask9_1_71)">
<path d="M28.8157 47.9888C31.147 47.9888 33.0368 46.203 33.0368 44.0001C33.0368 41.7972 31.147 40.0114 28.8157 40.0114C26.4844 40.0114 24.5945 41.7972 24.5945 44.0001C24.5945 46.203 26.4844 47.9888 28.8157 47.9888Z" fill="url(#paint19_linear_1_71)"/>
</g>
<mask id="mask10_1_71" style="mask-type:alpha" maskUnits="userSpaceOnUse" x="49" y="40" width="9" height="8">
<path d="M53.2625 47.9889C55.5938 47.9889 57.4837 46.2032 57.4837 44.0003C57.4837 41.7974 55.5938 40.0116 53.2625 40.0116C50.9312 40.0116 49.0413 41.7974 49.0413 44.0003C49.0413 46.2032 50.9312 47.9889 53.2625 47.9889Z" fill="url(#paint20_linear_1_71)"/>
</mask>
<g mask="url(#mask10_1_71)">
<path d="M53.2632 47.9888C55.5945 47.9888 57.4844 46.203 57.4844 44.0001C57.4844 41.7972 55.5945 40.0114 53.2632 40.0114C50.9319 40.0114 49.042 41.7972 49.042 44.0001C49.042 46.203 50.9319 47.9888 53.2632 47.9888Z" fill="url(#paint21_linear_1_71)"/>
</g>
<mask id="mask11_1_71" style="mask-type:alpha" maskUnits="userSpaceOnUse" x="73" y="40" width="9" height="8">
<path d="M77.7096 47.9889C80.0409 47.9889 81.9308 46.2032 81.9308 44.0003C81.9308 41.7974 80.0409 40.0116 77.7096 40.0116C75.3783 40.0116 73.4884 41.7974 73.4884 44.0003C73.4884 46.2032 75.3783 47.9889 77.7096 47.9889Z" fill="url(#paint22_linear_1_71)"/>
</mask>
<g mask="url(#mask11_1_71)">
<path d="M77.7102 47.9888C80.0415 47.9888 81.9314 46.203 81.9314 44.0001C81.9314 41.7972 80.0415 40.0114 77.7102 40.0114C75.3789 40.0114 73.489 41.7972 73.489 44.0001C73.489 46.203 75.3789 47.9888 77.7102 47.9888Z" fill="url(#paint23_linear_1_71)"/>
</g>
<mask id="mask12_1_71" style="mask-type:alpha" maskUnits="userSpaceOnUse" x="0" y="60" width="9" height="9">
<path d="M4.36802 68.0155C6.69931 68.0155 8.5892 66.2296 8.5892 64.0268C8.5892 61.8239 6.69931 60.0381 4.36802 60.0381C2.03673 60.0381 0.146851 61.8239 0.146851 64.0268C0.146851 66.2296 2.03673 68.0155 4.36802 68.0155Z" fill="url(#paint24_linear_1_71)"/>
</mask>
<g mask="url(#mask12_1_71)">
<path d="M4.36802 68.0152C6.69931 68.0152 8.5892 66.2294 8.5892 64.0265C8.5892 61.8236 6.69931 60.0379 4.36802 60.0379C2.03673 60.0379 0.146851 61.8236 0.146851 64.0265C0.146851 66.2294 2.03673 68.0152 4.36802 68.0152Z" fill="url(#paint25_linear_1_71)"/>
</g>
<mask id="mask13_1_71" style="mask-type:alpha" maskUnits="userSpaceOnUse" x="24" y="60" width="10" height="9">
<path d="M28.8153 68.0155C31.1466 68.0155 33.0365 66.2296 33.0365 64.0268C33.0365 61.8239 31.1466 60.0381 28.8153 60.0381C26.484 60.0381 24.5941 61.8239 24.5941 64.0268C24.5941 66.2296 26.484 68.0155 28.8153 68.0155Z" fill="url(#paint26_linear_1_71)"/>
</mask>
<g mask="url(#mask13_1_71)">
<path d="M28.8157 68.0152C31.147 68.0152 33.0368 66.2294 33.0368 64.0265C33.0368 61.8236 31.147 60.0379 28.8157 60.0379C26.4844 60.0379 24.5945 61.8236 24.5945 64.0265C24.5945 66.2294 26.4844 68.0152 28.8157 68.0152Z" fill="url(#paint27_linear_1_71)"/>
</g>
<mask id="mask14_1_71" style="mask-type:alpha" maskUnits="userSpaceOnUse" x="49" y="60" width="9" height="9">
<path d="M53.2625 68.0155C55.5938 68.0155 57.4837 66.2296 57.4837 64.0268C57.4837 61.8239 55.5938 60.0381 53.2625 60.0381C50.9312 60.0381 49.0413 61.8239 49.0413 64.0268C49.0413 66.2296 50.9312 68.0155 53.2625 68.0155Z" fill="url(#paint28_linear_1_71)"/>
</mask>
<g mask="url(#mask14_1_71)">
<path d="M53.2632 68.0152C55.5945 68.0152 57.4844 66.2294 57.4844 64.0265C57.4844 61.8236 55.5945 60.0379 53.2632 60.0379C50.9319 60.0379 49.042 61.8236 49.042 64.0265C49.042 66.2294 50.9319 68.0152 53.2632 68.0152Z" fill="url(#paint29_linear_1_71)"/>
</g>
<mask id="mask15_1_71" style="mask-type:alpha" maskUnits="userSpaceOnUse" x="73" y="60" width="9" height="9">
<path d="M77.7096 68.0155C80.0409 68.0155 81.9308 66.2296 81.9308 64.0268C81.9308 61.8239 80.0409 60.0381 77.7096 60.0381C75.3783 60.0381 73.4884 61.8239 73.4884 64.0268C73.4884 66.2296 75.3783 68.0155 77.7096 68.0155Z" fill="url(#paint30_linear_1_71)"/>
</mask>
<g mask="url(#mask15_1_71)">
<path d="M77.7102 68.0152C80.0415 68.0152 81.9314 66.2294 81.9314 64.0265C81.9314 61.8236 80.0415 60.0379 77.7102 60.0379C75.3789 60.0379 73.489 61.8236 73.489 64.0265C73.489 66.2294 75.3789 68.0152 77.7102 68.0152Z" fill="url(#paint31_linear_1_71)"/>
</g>
</g>
<defs>
<linearGradient id="paint0_linear_1_71" x1="41.257" y1="92.4707" x2="-11.2421" y2="-48.5647" gradientUnits="userSpaceOnUse">
<stop stop-color="#89C5CC"/>
<stop offset="1" stop-color="#89C5CC"/>
</linearGradient>
<linearGradient id="paint1_linear_1_71" x1="41.257" y1="92.4707" x2="-11.2421" y2="-48.5647" gradientUnits="userSpaceOnUse">
<stop stop-color="#89C5CC"/>
<stop offset="1" stop-color="#89C5CC"/>
</linearGradient>
<linearGradient id="paint2_linear_1_71" x1="65.7043" y1="92.4707" x2="13.2053" y2="-48.5647" gradientUnits="userSpaceOnUse">
<stop stop-color="#89C5CC"/>
<stop offset="1" stop-color="#89C5CC"/>
</linearGradient>
<linearGradient id="paint3_linear_1_71" x1="65.7047" y1="92.4707" x2="13.2056" y2="-48.5647" gradientUnits="userSpaceOnUse">
<stop stop-color="#89C5CC"/>
<stop offset="1" stop-color="#89C5CC"/>
</linearGradient>
<linearGradient id="paint4_linear_1_71" x1="90.1515" y1="92.4707" x2="37.6525" y2="-48.5647" gradientUnits="userSpaceOnUse">
<stop stop-color="#89C5CC"/>
<stop offset="1" stop-color="#89C5CC"/>
</linearGradient>
<linearGradient id="paint5_linear_1_71" x1="90.1522" y1="92.4707" x2="37.6531" y2="-48.5647" gradientUnits="userSpaceOnUse">
<stop stop-color="#89C5CC"/>
<stop offset="1" stop-color="#89C5CC"/>
</linearGradient>
<linearGradient id="paint6_linear_1_71" x1="114.599" y1="92.4707" x2="62.0995" y2="-48.5647" gradientUnits="userSpaceOnUse">
<stop stop-color="#89C5CC"/>
<stop offset="1" stop-color="#89C5CC"/>
</linearGradient>
<linearGradient id="paint7_linear_1_71" x1="114.599" y1="92.4707" x2="62.1002" y2="-48.5647" gradientUnits="userSpaceOnUse">
<stop stop-color="#89C5CC"/>
<stop offset="1" stop-color="#89C5CC"/>
</linearGradient>
<linearGradient id="paint8_linear_1_71" x1="41.257" y1="112.496" x2="-11.2412" y2="-28.5381" gradientUnits="userSpaceOnUse">
<stop stop-color="#89C5CC"/>
<stop offset="1" stop-color="#89C5CC"/>
</linearGradient>
<linearGradient id="paint9_linear_1_71" x1="41.257" y1="112.496" x2="-11.2412" y2="-28.5381" gradientUnits="userSpaceOnUse">
<stop stop-color="#89C5CC"/>
<stop offset="1" stop-color="#89C5CC"/>
</linearGradient>
<linearGradient id="paint10_linear_1_71" x1="65.7043" y1="112.496" x2="13.2062" y2="-28.5381" gradientUnits="userSpaceOnUse">
<stop stop-color="#89C5CC"/>
<stop offset="1" stop-color="#89C5CC"/>
</linearGradient>
<linearGradient id="paint11_linear_1_71" x1="65.7047" y1="112.496" x2="13.2065" y2="-28.5381" gradientUnits="userSpaceOnUse">
<stop stop-color="#89C5CC"/>
<stop offset="1" stop-color="#89C5CC"/>
</linearGradient>
<linearGradient id="paint12_linear_1_71" x1="90.1515" y1="112.496" x2="37.6534" y2="-28.5381" gradientUnits="userSpaceOnUse">
<stop stop-color="#89C5CC"/>
<stop offset="1" stop-color="#89C5CC"/>
</linearGradient>
<linearGradient id="paint13_linear_1_71" x1="90.1522" y1="112.496" x2="37.654" y2="-28.5381" gradientUnits="userSpaceOnUse">
<stop stop-color="#89C5CC"/>
<stop offset="1" stop-color="#89C5CC"/>
</linearGradient>
<linearGradient id="paint14_linear_1_71" x1="114.599" y1="112.496" x2="62.1005" y2="-28.5381" gradientUnits="userSpaceOnUse">
<stop stop-color="#89C5CC"/>
<stop offset="1" stop-color="#89C5CC"/>
</linearGradient>
<linearGradient id="paint15_linear_1_71" x1="114.599" y1="112.496" x2="62.1011" y2="-28.5381" gradientUnits="userSpaceOnUse">
<stop stop-color="#89C5CC"/>
<stop offset="1" stop-color="#89C5CC"/>
</linearGradient>
<linearGradient id="paint16_linear_1_71" x1="41.257" y1="132.482" x2="-11.2421" y2="-8.55334" gradientUnits="userSpaceOnUse">
<stop stop-color="#89C5CC"/>
<stop offset="1" stop-color="#89C5CC"/>
</linearGradient>
<linearGradient id="paint17_linear_1_71" x1="41.257" y1="132.482" x2="-11.2421" y2="-8.55325" gradientUnits="userSpaceOnUse">
<stop stop-color="#89C5CC"/>
<stop offset="1" stop-color="#89C5CC"/>
</linearGradient>
<linearGradient id="paint18_linear_1_71" x1="65.7043" y1="132.482" x2="13.2053" y2="-8.55311" gradientUnits="userSpaceOnUse">
<stop stop-color="#89C5CC"/>
<stop offset="1" stop-color="#89C5CC"/>
</linearGradient>
<linearGradient id="paint19_linear_1_71" x1="65.7047" y1="132.482" x2="13.2056" y2="-8.55329" gradientUnits="userSpaceOnUse">
<stop stop-color="#89C5CC"/>
<stop offset="1" stop-color="#89C5CC"/>
</linearGradient>
<linearGradient id="paint20_linear_1_71" x1="90.1515" y1="132.482" x2="37.6525" y2="-8.55311" gradientUnits="userSpaceOnUse">
<stop stop-color="#89C5CC"/>
<stop offset="1" stop-color="#89C5CC"/>
</linearGradient>
<linearGradient id="paint21_linear_1_71" x1="90.1522" y1="132.482" x2="37.6531" y2="-8.55329" gradientUnits="userSpaceOnUse">
<stop stop-color="#89C5CC"/>
<stop offset="1" stop-color="#89C5CC"/>
</linearGradient>
<linearGradient id="paint22_linear_1_71" x1="114.599" y1="132.482" x2="62.0995" y2="-8.55311" gradientUnits="userSpaceOnUse">
<stop stop-color="#89C5CC"/>
<stop offset="1" stop-color="#89C5CC"/>
</linearGradient>
<linearGradient id="paint23_linear_1_71" x1="114.599" y1="132.482" x2="62.1002" y2="-8.55329" gradientUnits="userSpaceOnUse">
<stop stop-color="#89C5CC"/>
<stop offset="1" stop-color="#89C5CC"/>
</linearGradient>
<linearGradient id="paint24_linear_1_71" x1="41.257" y1="152.509" x2="-11.2421" y2="11.4735" gradientUnits="userSpaceOnUse">
<stop stop-color="#89C5CC"/>
<stop offset="1" stop-color="#89C5CC"/>
</linearGradient>
<linearGradient id="paint25_linear_1_71" x1="41.257" y1="152.509" x2="-11.2421" y2="11.4732" gradientUnits="userSpaceOnUse">
<stop stop-color="#89C5CC"/>
<stop offset="1" stop-color="#89C5CC"/>
</linearGradient>
<linearGradient id="paint26_linear_1_71" x1="65.7043" y1="152.509" x2="13.2053" y2="11.4734" gradientUnits="userSpaceOnUse">
<stop stop-color="#89C5CC"/>
<stop offset="1" stop-color="#89C5CC"/>
</linearGradient>
<linearGradient id="paint27_linear_1_71" x1="65.7047" y1="152.509" x2="13.2056" y2="11.4732" gradientUnits="userSpaceOnUse">
<stop stop-color="#89C5CC"/>
<stop offset="1" stop-color="#89C5CC"/>
</linearGradient>
<linearGradient id="paint28_linear_1_71" x1="90.1515" y1="152.509" x2="37.6525" y2="11.4734" gradientUnits="userSpaceOnUse">
<stop stop-color="#89C5CC"/>
<stop offset="1" stop-color="#89C5CC"/>
</linearGradient>
<linearGradient id="paint29_linear_1_71" x1="90.1522" y1="152.509" x2="37.6531" y2="11.4732" gradientUnits="userSpaceOnUse">
<stop stop-color="#89C5CC"/>
<stop offset="1" stop-color="#89C5CC"/>
</linearGradient>
<linearGradient id="paint30_linear_1_71" x1="114.599" y1="152.509" x2="62.0995" y2="11.4734" gradientUnits="userSpaceOnUse">
<stop stop-color="#89C5CC"/>
<stop offset="1" stop-color="#89C5CC"/>
</linearGradient>
<linearGradient id="paint31_linear_1_71" x1="114.599" y1="152.509" x2="62.1002" y2="11.4732" gradientUnits="userSpaceOnUse">
<stop stop-color="#89C5CC"/>
<stop offset="1" stop-color="#89C5CC"/>
</linearGradient>
</defs>
</svg>
