<svg width="1089" height="30" viewBox="0 0 1089 30" fill="none" xmlns="http://www.w3.org/2000/svg">
<g filter="url(#filter0_dd_1_60)">
<path d="M801.935 18V5.31H804.257V10.602H810.755V5.31H813.077V18H810.755V12.528H804.257V18H801.935ZM819.799 18.18C818.863 18.18 818.053 17.988 817.369 17.604C816.685 17.22 816.151 16.674 815.767 15.966C815.395 15.258 815.209 14.418 815.209 13.446C815.209 12.474 815.395 11.64 815.767 10.944C816.151 10.236 816.685 9.69 817.369 9.306C818.053 8.922 818.863 8.73 819.799 8.73C820.735 8.73 821.545 8.922 822.229 9.306C822.925 9.69 823.459 10.236 823.831 10.944C824.215 11.64 824.407 12.474 824.407 13.446C824.407 14.418 824.215 15.258 823.831 15.966C823.459 16.674 822.925 17.22 822.229 17.604C821.545 17.988 820.735 18.18 819.799 18.18ZM819.799 16.452C820.507 16.452 821.071 16.206 821.491 15.714C821.911 15.21 822.121 14.454 822.121 13.446C822.121 12.438 821.911 11.688 821.491 11.196C821.071 10.704 820.507 10.458 819.799 10.458C819.091 10.458 818.527 10.704 818.107 11.196C817.687 11.688 817.477 12.438 817.477 13.446C817.477 14.454 817.687 15.21 818.107 15.714C818.527 16.206 819.091 16.452 819.799 16.452ZM826.347 18V11.178C826.347 10.806 826.335 10.428 826.311 10.044C826.287 9.66 826.251 9.282 826.203 8.91H828.381L828.561 10.71H828.345C828.597 10.086 828.981 9.6 829.497 9.252C830.025 8.904 830.649 8.73 831.369 8.73C832.089 8.73 832.683 8.904 833.151 9.252C833.631 9.588 833.967 10.116 834.159 10.836H833.871C834.123 10.188 834.537 9.678 835.113 9.306C835.689 8.922 836.349 8.73 837.093 8.73C838.113 8.73 838.875 9.03 839.379 9.63C839.883 10.23 840.135 11.166 840.135 12.438V18H837.885V12.528C837.885 11.808 837.765 11.292 837.525 10.98C837.285 10.656 836.901 10.494 836.373 10.494C835.749 10.494 835.257 10.716 834.897 11.16C834.537 11.592 834.357 12.18 834.357 12.924V18H832.107V12.528C832.107 11.808 831.987 11.292 831.747 10.98C831.507 10.656 831.123 10.494 830.595 10.494C829.971 10.494 829.479 10.716 829.119 11.16C828.771 11.592 828.597 12.18 828.597 12.924V18H826.347ZM846.929 18.18C845.405 18.18 844.211 17.76 843.347 16.92C842.483 16.08 842.051 14.928 842.051 13.464C842.051 12.516 842.237 11.688 842.609 10.98C842.981 10.272 843.497 9.72 844.157 9.324C844.829 8.928 845.609 8.73 846.497 8.73C847.373 8.73 848.105 8.916 848.693 9.288C849.281 9.66 849.725 10.182 850.025 10.854C850.337 11.526 850.493 12.312 850.493 13.212V13.806H843.869V12.618H848.891L848.585 12.87C848.585 12.03 848.405 11.388 848.045 10.944C847.697 10.5 847.187 10.278 846.515 10.278C845.771 10.278 845.195 10.542 844.787 11.07C844.391 11.598 844.193 12.336 844.193 13.284V13.518C844.193 14.502 844.433 15.24 844.913 15.732C845.405 16.212 846.095 16.452 846.983 16.452C847.499 16.452 847.979 16.386 848.423 16.254C848.879 16.11 849.311 15.882 849.719 15.57L850.385 17.082C849.953 17.43 849.437 17.7 848.837 17.892C848.237 18.084 847.601 18.18 846.929 18.18Z" fill="#1F1534"/>
<path opacity="0.5" d="M913.144 18.162C912.124 18.162 911.212 18.03 910.408 17.766C909.604 17.502 908.902 17.124 908.302 16.632L908.842 15.444C909.262 15.756 909.682 16.02 910.102 16.236C910.534 16.44 910.996 16.596 911.488 16.704C911.98 16.8 912.532 16.848 913.144 16.848C914.212 16.848 915.004 16.65 915.52 16.254C916.036 15.858 916.294 15.33 916.294 14.67C916.294 14.106 916.114 13.674 915.754 13.374C915.394 13.074 914.764 12.834 913.864 12.654L911.974 12.276C910.81 12.036 909.94 11.646 909.364 11.106C908.8 10.566 908.518 9.834 908.518 8.91C908.518 8.154 908.71 7.494 909.094 6.93C909.49 6.366 910.042 5.928 910.75 5.616C911.458 5.304 912.28 5.148 913.216 5.148C914.116 5.148 914.938 5.286 915.682 5.562C916.426 5.826 917.062 6.216 917.59 6.732L917.068 7.884C916.504 7.38 915.91 7.02 915.286 6.804C914.674 6.576 913.978 6.462 913.198 6.462C912.214 6.462 911.434 6.678 910.858 7.11C910.294 7.53 910.012 8.106 910.012 8.838C910.012 9.426 910.192 9.888 910.552 10.224C910.912 10.548 911.506 10.794 912.334 10.962L914.242 11.34C915.466 11.592 916.366 11.97 916.942 12.474C917.518 12.978 917.806 13.686 917.806 14.598C917.806 15.294 917.614 15.912 917.23 16.452C916.858 16.992 916.324 17.412 915.628 17.712C914.932 18.012 914.104 18.162 913.144 18.162ZM923.765 18.162C922.901 18.162 922.145 17.976 921.497 17.604C920.861 17.22 920.369 16.68 920.021 15.984C919.673 15.276 919.499 14.442 919.499 13.482C919.499 12.51 919.673 11.676 920.021 10.98C920.369 10.284 920.861 9.75 921.497 9.378C922.145 8.994 922.901 8.802 923.765 8.802C924.641 8.802 925.397 8.994 926.033 9.378C926.681 9.75 927.179 10.284 927.527 10.98C927.887 11.676 928.067 12.51 928.067 13.482C928.067 14.442 927.887 15.276 927.527 15.984C927.179 16.68 926.681 17.22 926.033 17.604C925.397 17.976 924.641 18.162 923.765 18.162ZM923.765 16.974C924.629 16.974 925.313 16.68 925.817 16.092C926.321 15.492 926.573 14.622 926.573 13.482C926.573 12.33 926.315 11.46 925.799 10.872C925.295 10.272 924.617 9.972 923.765 9.972C922.913 9.972 922.235 10.272 921.731 10.872C921.227 11.46 920.975 12.33 920.975 13.482C920.975 14.622 921.227 15.492 921.731 16.092C922.235 16.68 922.913 16.974 923.765 16.974ZM934.876 18.162C934.06 18.162 933.358 17.958 932.77 17.55C932.182 17.13 931.786 16.56 931.582 15.84H931.78V18H930.34V4.752H931.798V11.07H931.582C931.786 10.374 932.182 9.822 932.77 9.414C933.358 9.006 934.06 8.802 934.876 8.802C935.692 8.802 936.394 8.994 936.982 9.378C937.582 9.75 938.044 10.284 938.368 10.98C938.704 11.676 938.872 12.51 938.872 13.482C938.872 14.454 938.704 15.288 938.368 15.984C938.032 16.68 937.564 17.22 936.964 17.604C936.376 17.976 935.68 18.162 934.876 18.162ZM934.57 16.974C935.422 16.974 936.106 16.68 936.622 16.092C937.138 15.504 937.396 14.634 937.396 13.482C937.396 12.33 937.138 11.46 936.622 10.872C936.106 10.272 935.422 9.972 934.57 9.972C933.718 9.972 933.034 10.272 932.518 10.872C932.014 11.46 931.762 12.33 931.762 13.482C931.762 14.622 932.014 15.492 932.518 16.092C933.034 16.68 933.718 16.974 934.57 16.974ZM941.097 18V11.142C941.097 10.782 941.085 10.416 941.061 10.044C941.049 9.672 941.025 9.312 940.989 8.964H942.393L942.573 11.16L942.321 11.178C942.441 10.638 942.651 10.194 942.951 9.846C943.251 9.498 943.605 9.24 944.013 9.072C944.421 8.892 944.847 8.802 945.291 8.802C945.471 8.802 945.627 8.808 945.759 8.82C945.903 8.832 946.035 8.862 946.155 8.91L946.137 10.206C945.957 10.146 945.789 10.11 945.633 10.098C945.489 10.074 945.321 10.062 945.129 10.062C944.601 10.062 944.139 10.188 943.743 10.44C943.359 10.692 943.065 11.016 942.861 11.412C942.669 11.808 942.573 12.228 942.573 12.672V18H941.097ZM951.581 18.162C950.165 18.162 949.049 17.754 948.233 16.938C947.417 16.11 947.009 14.964 947.009 13.5C947.009 12.552 947.189 11.73 947.549 11.034C947.909 10.326 948.413 9.78 949.061 9.396C949.709 9 950.453 8.802 951.293 8.802C952.121 8.802 952.817 8.976 953.381 9.324C953.945 9.672 954.377 10.17 954.677 10.818C954.977 11.454 955.127 12.21 955.127 13.086V13.626H948.125V12.708H954.173L953.867 12.942C953.867 11.982 953.651 11.232 953.219 10.692C952.787 10.152 952.145 9.882 951.293 9.882C950.393 9.882 949.691 10.2 949.187 10.836C948.683 11.46 948.431 12.306 948.431 13.374V13.536C948.431 14.664 948.707 15.522 949.259 16.11C949.823 16.686 950.609 16.974 951.617 16.974C952.157 16.974 952.661 16.896 953.129 16.74C953.609 16.572 954.065 16.302 954.497 15.93L955.001 16.956C954.605 17.34 954.101 17.64 953.489 17.856C952.889 18.06 952.253 18.162 951.581 18.162Z" fill="#1F1534"/>
<path opacity="0.5" d="M1016.81 18V6.57H1012.33V5.31H1022.77V6.57H1018.31V18H1016.81ZM1023.05 18V11.142C1023.05 10.782 1023.03 10.416 1023.01 10.044C1023 9.672 1022.97 9.312 1022.94 8.964H1024.34L1024.52 11.16L1024.27 11.178C1024.39 10.638 1024.6 10.194 1024.9 9.846C1025.2 9.498 1025.55 9.24 1025.96 9.072C1026.37 8.892 1026.8 8.802 1027.24 8.802C1027.42 8.802 1027.58 8.808 1027.71 8.82C1027.85 8.832 1027.98 8.862 1028.1 8.91L1028.09 10.206C1027.91 10.146 1027.74 10.11 1027.58 10.098C1027.44 10.074 1027.27 10.062 1027.08 10.062C1026.55 10.062 1026.09 10.188 1025.69 10.44C1025.31 10.692 1025.01 11.016 1024.81 11.412C1024.62 11.808 1024.52 12.228 1024.52 12.672V18H1023.05ZM1033.53 18.162C1032.11 18.162 1031 17.754 1030.18 16.938C1029.37 16.11 1028.96 14.964 1028.96 13.5C1028.96 12.552 1029.14 11.73 1029.5 11.034C1029.86 10.326 1030.36 9.78 1031.01 9.396C1031.66 9 1032.4 8.802 1033.24 8.802C1034.07 8.802 1034.77 8.976 1035.33 9.324C1035.89 9.672 1036.33 10.17 1036.63 10.818C1036.93 11.454 1037.08 12.21 1037.08 13.086V13.626H1030.07V12.708H1036.12L1035.82 12.942C1035.82 11.982 1035.6 11.232 1035.17 10.692C1034.74 10.152 1034.09 9.882 1033.24 9.882C1032.34 9.882 1031.64 10.2 1031.14 10.836C1030.63 11.46 1030.38 12.306 1030.38 13.374V13.536C1030.38 14.664 1030.66 15.522 1031.21 16.11C1031.77 16.686 1032.56 16.974 1033.57 16.974C1034.11 16.974 1034.61 16.896 1035.08 16.74C1035.56 16.572 1036.01 16.302 1036.45 15.93L1036.95 16.956C1036.55 17.34 1036.05 17.64 1035.44 17.856C1034.84 18.06 1034.2 18.162 1033.53 18.162ZM1039.31 18V8.964H1040.76V18H1039.31ZM1039.13 6.912V5.274H1040.93V6.912H1039.13ZM1043.6 18V11.052C1043.6 10.716 1043.58 10.374 1043.54 10.026C1043.52 9.666 1043.49 9.312 1043.45 8.964H1044.86L1045.04 10.944H1044.82C1045.08 10.248 1045.5 9.72 1046.08 9.36C1046.67 8.988 1047.35 8.802 1048.11 8.802C1049.18 8.802 1049.99 9.09 1050.53 9.666C1051.08 10.23 1051.35 11.124 1051.35 12.348V18H1049.9V12.438C1049.9 11.586 1049.72 10.968 1049.37 10.584C1049.04 10.188 1048.51 9.99 1047.79 9.99C1046.95 9.99 1046.28 10.248 1045.79 10.764C1045.3 11.28 1045.05 11.97 1045.05 12.834V18H1043.6ZM1057.58 18.162C1056.78 18.162 1056.07 17.976 1055.47 17.604C1054.87 17.22 1054.41 16.68 1054.07 15.984C1053.75 15.288 1053.58 14.454 1053.58 13.482C1053.58 12.498 1053.75 11.658 1054.07 10.962C1054.41 10.266 1054.87 9.732 1055.47 9.36C1056.07 8.988 1056.78 8.802 1057.58 8.802C1058.4 8.802 1059.1 9.012 1059.69 9.432C1060.29 9.84 1060.68 10.398 1060.87 11.106H1060.66L1060.86 8.964H1062.26C1062.22 9.312 1062.19 9.666 1062.15 10.026C1062.13 10.374 1062.12 10.716 1062.12 11.052V18H1060.66V15.876H1060.86C1060.66 16.584 1060.27 17.142 1059.67 17.55C1059.07 17.958 1058.37 18.162 1057.58 18.162ZM1057.87 16.974C1058.73 16.974 1059.42 16.68 1059.92 16.092C1060.42 15.492 1060.68 14.622 1060.68 13.482C1060.68 12.33 1060.42 11.46 1059.92 10.872C1059.42 10.272 1058.73 9.972 1057.87 9.972C1057.02 9.972 1056.33 10.272 1055.82 10.872C1055.31 11.46 1055.06 12.33 1055.06 13.482C1055.06 14.622 1055.31 15.492 1055.82 16.092C1056.33 16.68 1057.02 16.974 1057.87 16.974ZM1064.9 18V11.142C1064.9 10.782 1064.89 10.416 1064.86 10.044C1064.85 9.672 1064.83 9.312 1064.79 8.964H1066.2L1066.38 11.16L1066.12 11.178C1066.24 10.638 1066.45 10.194 1066.75 9.846C1067.05 9.498 1067.41 9.24 1067.82 9.072C1068.22 8.892 1068.65 8.802 1069.09 8.802C1069.27 8.802 1069.43 8.808 1069.56 8.82C1069.71 8.832 1069.84 8.862 1069.96 8.91L1069.94 10.206C1069.76 10.146 1069.59 10.11 1069.44 10.098C1069.29 10.074 1069.12 10.062 1068.93 10.062C1068.4 10.062 1067.94 10.188 1067.55 10.44C1067.16 10.692 1066.87 11.016 1066.66 11.412C1066.47 11.808 1066.38 12.228 1066.38 12.672V18H1064.9Z" fill="#1F1534"/>
<path d="M11.4328 9V11.5H4.20624V9H11.4328ZM5.84686 6.125H9.17499V17.3125C9.17499 17.6198 9.22186 17.8594 9.31561 18.0312C9.40936 18.1979 9.53957 18.3151 9.70624 18.3828C9.87811 18.4505 10.076 18.4844 10.3 18.4844C10.4562 18.4844 10.6125 18.4714 10.7687 18.4453C10.925 18.4141 11.0448 18.3906 11.1281 18.375L11.6516 20.8516C11.4849 20.9036 11.2505 20.9635 10.9484 21.0313C10.6463 21.1042 10.2792 21.1484 9.84686 21.1641C9.04478 21.1953 8.34165 21.0885 7.73749 20.8437C7.13853 20.599 6.67238 20.2187 6.33905 19.7031C6.00572 19.1875 5.84165 18.5365 5.84686 17.75V6.125ZM13.6008 21V9H16.8273V11.0937H16.9523C17.1711 10.349 17.5383 9.78646 18.0539 9.40625C18.5695 9.02083 19.1633 8.82812 19.8351 8.82812C20.0018 8.82812 20.1815 8.83854 20.3742 8.85937C20.5669 8.88021 20.7362 8.90885 20.882 8.94531V11.8984C20.7258 11.8516 20.5096 11.8099 20.2336 11.7734C19.9575 11.737 19.7049 11.7188 19.4758 11.7188C18.9862 11.7188 18.5487 11.8255 18.1633 12.0391C17.7831 12.2474 17.481 12.5391 17.257 12.9141C17.0383 13.2891 16.9289 13.7214 16.9289 14.2109V21H13.6008ZM27.5129 21.2344C26.2785 21.2344 25.216 20.9844 24.3254 20.4844C23.44 19.9792 22.7577 19.2656 22.2785 18.3437C21.7993 17.4167 21.5598 16.3203 21.5598 15.0547C21.5598 13.8203 21.7993 12.737 22.2785 11.8047C22.7577 10.8724 23.4321 10.1458 24.3019 9.625C25.1769 9.10417 26.203 8.84375 27.3801 8.84375C28.1717 8.84375 28.9087 8.97135 29.591 9.22656C30.2785 9.47656 30.8775 9.85417 31.3879 10.3594C31.9035 10.8646 32.3045 11.5 32.591 12.2656C32.8775 13.026 33.0207 13.9167 33.0207 14.9375V15.8516H22.8879V13.7891H29.8879C29.8879 13.3099 29.7837 12.8854 29.5754 12.5156C29.367 12.1458 29.078 11.8568 28.7082 11.6484C28.3436 11.4349 27.9191 11.3281 27.4348 11.3281C26.9295 11.3281 26.4816 11.4453 26.091 11.6797C25.7056 11.9089 25.4035 12.2187 25.1848 12.6094C24.966 12.9948 24.854 13.4245 24.8488 13.8984V15.8594C24.8488 16.4531 24.9582 16.9661 25.1769 17.3984C25.4009 17.8307 25.716 18.1641 26.1223 18.3984C26.5285 18.6328 27.0103 18.75 27.5676 18.75C27.9374 18.75 28.2759 18.6979 28.5832 18.5938C28.8905 18.4896 29.1535 18.3333 29.3723 18.125C29.591 17.9167 29.7577 17.6615 29.8723 17.3594L32.9504 17.5625C32.7941 18.3021 32.4738 18.9479 31.9894 19.5C31.5103 20.0469 30.8905 20.474 30.1301 20.7813C29.3749 21.0833 28.5025 21.2344 27.5129 21.2344ZM35.1926 21V9H38.5207V21H35.1926ZM36.8644 7.45312C36.3696 7.45312 35.9452 7.28906 35.591 6.96094C35.242 6.6276 35.0676 6.22917 35.0676 5.76562C35.0676 5.30729 35.242 4.91406 35.591 4.58594C35.9452 4.2526 36.3696 4.08594 36.8644 4.08594C37.3592 4.08594 37.7811 4.2526 38.1301 4.58594C38.4842 4.91406 38.6613 5.30729 38.6613 5.76562C38.6613 6.22917 38.4842 6.6276 38.1301 6.96094C37.7811 7.28906 37.3592 7.45312 36.8644 7.45312ZM44.5148 14.0625V21H41.1867V9H44.3586V11.1172H44.4992C44.7648 10.4193 45.2101 9.86719 45.8351 9.46094C46.4601 9.04948 47.218 8.84375 48.1086 8.84375C48.9419 8.84375 49.6685 9.02604 50.2883 9.39062C50.9081 9.75521 51.3898 10.276 51.7336 10.9531C52.0773 11.625 52.2492 12.4271 52.2492 13.3594V21H48.9211V13.9531C48.9263 13.2187 48.7388 12.6458 48.3586 12.2344C47.9784 11.8177 47.4549 11.6094 46.7883 11.6094C46.3404 11.6094 45.9445 11.7057 45.6008 11.8984C45.2622 12.0911 44.9966 12.3724 44.8039 12.7422C44.6164 13.1068 44.52 13.5469 44.5148 14.0625ZM60.341 21.2344C59.1066 21.2344 58.0441 20.9844 57.1535 20.4844C56.2681 19.9792 55.5858 19.2656 55.1066 18.3437C54.6275 17.4167 54.3879 16.3203 54.3879 15.0547C54.3879 13.8203 54.6275 12.737 55.1066 11.8047C55.5858 10.8724 56.2603 10.1458 57.1301 9.625C58.0051 9.10417 59.0311 8.84375 60.2082 8.84375C60.9999 8.84375 61.7368 8.97135 62.4191 9.22656C63.1066 9.47656 63.7056 9.85417 64.216 10.3594C64.7316 10.8646 65.1327 11.5 65.4191 12.2656C65.7056 13.026 65.8488 13.9167 65.8488 14.9375V15.8516H55.716V13.7891H62.716C62.716 13.3099 62.6118 12.8854 62.4035 12.5156C62.1952 12.1458 61.9061 11.8568 61.5363 11.6484C61.1717 11.4349 60.7473 11.3281 60.2629 11.3281C59.7577 11.3281 59.3098 11.4453 58.9191 11.6797C58.5337 11.9089 58.2316 12.2187 58.0129 12.6094C57.7941 12.9948 57.6821 13.4245 57.6769 13.8984V15.8594C57.6769 16.4531 57.7863 16.9661 58.0051 17.3984C58.229 17.8307 58.5441 18.1641 58.9504 18.3984C59.3566 18.6328 59.8384 18.75 60.3957 18.75C60.7655 18.75 61.104 18.6979 61.4113 18.5938C61.7186 18.4896 61.9816 18.3333 62.2004 18.125C62.4191 17.9167 62.5858 17.6615 62.7004 17.3594L65.7785 17.5625C65.6223 18.3021 65.3019 18.9479 64.8176 19.5C64.3384 20.0469 63.7186 20.474 62.9582 20.7813C62.203 21.0833 61.3306 21.2344 60.341 21.2344ZM69.966 21.2031C69.4504 21.2031 69.0077 21.0208 68.6379 20.6562C68.2733 20.2865 68.091 19.8437 68.091 19.3281C68.091 18.8177 68.2733 18.3802 68.6379 18.0156C69.0077 17.651 69.4504 17.4687 69.966 17.4687C70.466 17.4687 70.9035 17.651 71.2785 18.0156C71.6535 18.3802 71.841 18.8177 71.841 19.3281C71.841 19.6719 71.7525 19.987 71.5754 20.2734C71.4035 20.5547 71.1769 20.7812 70.8957 20.9531C70.6144 21.1198 70.3045 21.2031 69.966 21.2031ZM74.5734 21V9H77.7453V11.1172H77.8859C78.1359 10.4141 78.5526 9.85937 79.1359 9.45312C79.7193 9.04687 80.4172 8.84375 81.2297 8.84375C82.0526 8.84375 82.7531 9.04948 83.3312 9.46094C83.9094 9.86719 84.2948 10.4193 84.4875 11.1172H84.6125C84.8573 10.4297 85.3 9.88021 85.9406 9.46875C86.5864 9.05208 87.3495 8.84375 88.2297 8.84375C89.3495 8.84375 90.2583 9.20052 90.9562 9.91406C91.6594 10.6224 92.0109 11.6276 92.0109 12.9297V21H88.6906V13.5859C88.6906 12.9193 88.5135 12.4193 88.1594 12.0859C87.8052 11.7526 87.3625 11.5859 86.8312 11.5859C86.2271 11.5859 85.7557 11.7786 85.4172 12.1641C85.0786 12.5443 84.9094 13.0469 84.9094 13.6719V21H81.6828V13.5156C81.6828 12.9271 81.5135 12.4583 81.175 12.1094C80.8417 11.7604 80.4016 11.5859 79.8547 11.5859C79.4849 11.5859 79.1516 11.6797 78.8547 11.8672C78.563 12.0495 78.3312 12.3073 78.1594 12.6406C77.9875 12.9687 77.9016 13.3542 77.9016 13.7969V21H74.5734ZM100.109 21.2344C98.8742 21.2344 97.8117 20.9844 96.9211 20.4844C96.0357 19.9792 95.3534 19.2656 94.8742 18.3437C94.395 17.4167 94.1555 16.3203 94.1555 15.0547C94.1555 13.8203 94.395 12.737 94.8742 11.8047C95.3534 10.8724 96.0279 10.1458 96.8976 9.625C97.7726 9.10417 98.7987 8.84375 99.9758 8.84375C100.767 8.84375 101.504 8.97135 102.187 9.22656C102.874 9.47656 103.473 9.85417 103.984 10.3594C104.499 10.8646 104.9 11.5 105.187 12.2656C105.473 13.026 105.616 13.9167 105.616 14.9375V15.8516H95.4836V13.7891H102.484C102.484 13.3099 102.379 12.8854 102.171 12.5156C101.963 12.1458 101.674 11.8568 101.304 11.6484C100.939 11.4349 100.515 11.3281 100.03 11.3281C99.5252 11.3281 99.0773 11.4453 98.6867 11.6797C98.3013 11.9089 97.9992 12.2187 97.7805 12.6094C97.5617 12.9948 97.4497 13.4245 97.4445 13.8984V15.8594C97.4445 16.4531 97.5539 16.9661 97.7726 17.3984C97.9966 17.8307 98.3117 18.1641 98.718 18.3984C99.1242 18.6328 99.606 18.75 100.163 18.75C100.533 18.75 100.872 18.6979 101.179 18.5938C101.486 18.4896 101.749 18.3333 101.968 18.125C102.187 17.9167 102.353 17.6615 102.468 17.3594L105.546 17.5625C105.39 18.3021 105.07 18.9479 104.585 19.5C104.106 20.0469 103.486 20.474 102.726 20.7813C101.971 21.0833 101.098 21.2344 100.109 21.2344Z" fill="#89C5CC"/>
</g>
<defs>
<filter id="filter0_dd_1_60" x="0.206238" y="4.08594" width="1073.75" height="25.1484" filterUnits="userSpaceOnUse" color-interpolation-filters="sRGB">
<feFlood flood-opacity="0" result="BackgroundImageFix"/>
<feColorMatrix in="SourceAlpha" type="matrix" values="0 0 0 0 0 0 0 0 0 0 0 0 0 0 0 0 0 0 127 0" result="hardAlpha"/>
<feOffset dy="4"/>
<feGaussianBlur stdDeviation="2"/>
<feComposite in2="hardAlpha" operator="out"/>
<feColorMatrix type="matrix" values="0 0 0 0 0 0 0 0 0 0 0 0 0 0 0 0 0 0 0.25 0"/>
<feBlend mode="normal" in2="BackgroundImageFix" result="effect1_dropShadow_1_60"/>
<feColorMatrix in="SourceAlpha" type="matrix" values="0 0 0 0 0 0 0 0 0 0 0 0 0 0 0 0 0 0 127 0" result="hardAlpha"/>
<feOffset dy="4"/>
<feGaussianBlur stdDeviation="2"/>
<feComposite in2="hardAlpha" operator="out"/>
<feColorMatrix type="matrix" values="0 0 0 0 0 0 0 0 0 0 0 0 0 0 0 0 0 0 0.25 0"/>
<feBlend mode="normal" in2="effect1_dropShadow_1_60" result="effect2_dropShadow_1_60"/>
<feBlend mode="normal" in="SourceGraphic" in2="effect2_dropShadow_1_60" result="shape"/>
</filter>
</defs>
</svg>
