<svg width="112" height="22" viewBox="0 0 112 22" fill="none" xmlns="http://www.w3.org/2000/svg">
<path d="M8.4328 9V11.5H1.20624V9H8.4328ZM2.84686 6.125H6.17499V17.3125C6.17499 17.6198 6.22186 17.8594 6.31561 18.0312C6.40936 18.1979 6.53957 18.3151 6.70624 18.3828C6.87811 18.4505 7.07603 18.4844 7.29999 18.4844C7.45624 18.4844 7.61249 18.4714 7.76874 18.4453C7.92499 18.4141 8.04478 18.3906 8.12811 18.375L8.65155 20.8516C8.48488 20.9036 8.25051 20.9635 7.94843 21.0313C7.64634 21.1042 7.27915 21.1484 6.84686 21.1641C6.04478 21.1953 5.34165 21.0885 4.73749 20.8437C4.13853 20.599 3.67238 20.2187 3.33905 19.7031C3.00572 19.1875 2.84165 18.5365 2.84686 17.75V6.125ZM10.6008 21V9H13.8273V11.0937H13.9523C14.1711 10.349 14.5383 9.78646 15.0539 9.40625C15.5695 9.02083 16.1633 8.82812 16.8351 8.82812C17.0018 8.82812 17.1815 8.83854 17.3742 8.85937C17.5669 8.88021 17.7362 8.90885 17.882 8.94531V11.8984C17.7258 11.8516 17.5096 11.8099 17.2336 11.7734C16.9575 11.737 16.7049 11.7188 16.4758 11.7188C15.9862 11.7188 15.5487 11.8255 15.1633 12.0391C14.7831 12.2474 14.481 12.5391 14.257 12.9141C14.0383 13.2891 13.9289 13.7214 13.9289 14.2109V21H10.6008ZM24.5129 21.2344C23.2785 21.2344 22.216 20.9844 21.3254 20.4844C20.44 19.9792 19.7577 19.2656 19.2785 18.3437C18.7993 17.4167 18.5598 16.3203 18.5598 15.0547C18.5598 13.8203 18.7993 12.737 19.2785 11.8047C19.7577 10.8724 20.4321 10.1458 21.3019 9.625C22.1769 9.10417 23.203 8.84375 24.3801 8.84375C25.1717 8.84375 25.9087 8.97135 26.591 9.22656C27.2785 9.47656 27.8775 9.85417 28.3879 10.3594C28.9035 10.8646 29.3045 11.5 29.591 12.2656C29.8775 13.026 30.0207 13.9167 30.0207 14.9375V15.8516H19.8879V13.7891H26.8879C26.8879 13.3099 26.7837 12.8854 26.5754 12.5156C26.367 12.1458 26.078 11.8568 25.7082 11.6484C25.3436 11.4349 24.9191 11.3281 24.4348 11.3281C23.9295 11.3281 23.4816 11.4453 23.091 11.6797C22.7056 11.9089 22.4035 12.2187 22.1848 12.6094C21.966 12.9948 21.854 13.4245 21.8488 13.8984V15.8594C21.8488 16.4531 21.9582 16.9661 22.1769 17.3984C22.4009 17.8307 22.716 18.1641 23.1223 18.3984C23.5285 18.6328 24.0103 18.75 24.5676 18.75C24.9374 18.75 25.2759 18.6979 25.5832 18.5938C25.8905 18.4896 26.1535 18.3333 26.3723 18.125C26.591 17.9167 26.7577 17.6615 26.8723 17.3594L29.9504 17.5625C29.7941 18.3021 29.4738 18.9479 28.9894 19.5C28.5103 20.0469 27.8905 20.474 27.1301 20.7813C26.3749 21.0833 25.5025 21.2344 24.5129 21.2344ZM32.1926 21V9H35.5207V21H32.1926ZM33.8644 7.45312C33.3696 7.45312 32.9452 7.28906 32.591 6.96094C32.242 6.6276 32.0676 6.22917 32.0676 5.76562C32.0676 5.30729 32.242 4.91406 32.591 4.58594C32.9452 4.2526 33.3696 4.08594 33.8644 4.08594C34.3592 4.08594 34.7811 4.2526 35.1301 4.58594C35.4842 4.91406 35.6613 5.30729 35.6613 5.76562C35.6613 6.22917 35.4842 6.6276 35.1301 6.96094C34.7811 7.28906 34.3592 7.45312 33.8644 7.45312ZM41.5148 14.0625V21H38.1867V9H41.3586V11.1172H41.4992C41.7648 10.4193 42.2101 9.86719 42.8351 9.46094C43.4601 9.04948 44.218 8.84375 45.1086 8.84375C45.9419 8.84375 46.6685 9.02604 47.2883 9.39062C47.9081 9.75521 48.3898 10.276 48.7336 10.9531C49.0773 11.625 49.2492 12.4271 49.2492 13.3594V21H45.9211V13.9531C45.9263 13.2187 45.7388 12.6458 45.3586 12.2344C44.9784 11.8177 44.4549 11.6094 43.7883 11.6094C43.3404 11.6094 42.9445 11.7057 42.6008 11.8984C42.2622 12.0911 41.9966 12.3724 41.8039 12.7422C41.6164 13.1068 41.52 13.5469 41.5148 14.0625ZM57.341 21.2344C56.1066 21.2344 55.0441 20.9844 54.1535 20.4844C53.2681 19.9792 52.5858 19.2656 52.1066 18.3437C51.6275 17.4167 51.3879 16.3203 51.3879 15.0547C51.3879 13.8203 51.6275 12.737 52.1066 11.8047C52.5858 10.8724 53.2603 10.1458 54.1301 9.625C55.0051 9.10417 56.0311 8.84375 57.2082 8.84375C57.9999 8.84375 58.7368 8.97135 59.4191 9.22656C60.1066 9.47656 60.7056 9.85417 61.216 10.3594C61.7316 10.8646 62.1327 11.5 62.4191 12.2656C62.7056 13.026 62.8488 13.9167 62.8488 14.9375V15.8516H52.716V13.7891H59.716C59.716 13.3099 59.6118 12.8854 59.4035 12.5156C59.1952 12.1458 58.9061 11.8568 58.5363 11.6484C58.1717 11.4349 57.7473 11.3281 57.2629 11.3281C56.7577 11.3281 56.3098 11.4453 55.9191 11.6797C55.5337 11.9089 55.2316 12.2187 55.0129 12.6094C54.7941 12.9948 54.6821 13.4245 54.6769 13.8984V15.8594C54.6769 16.4531 54.7863 16.9661 55.0051 17.3984C55.229 17.8307 55.5441 18.1641 55.9504 18.3984C56.3566 18.6328 56.8384 18.75 57.3957 18.75C57.7655 18.75 58.104 18.6979 58.4113 18.5938C58.7186 18.4896 58.9816 18.3333 59.2004 18.125C59.4191 17.9167 59.5858 17.6615 59.7004 17.3594L62.7785 17.5625C62.6223 18.3021 62.3019 18.9479 61.8176 19.5C61.3384 20.0469 60.7186 20.474 59.9582 20.7813C59.203 21.0833 58.3306 21.2344 57.341 21.2344ZM66.966 21.2031C66.4504 21.2031 66.0077 21.0208 65.6379 20.6562C65.2733 20.2865 65.091 19.8437 65.091 19.3281C65.091 18.8177 65.2733 18.3802 65.6379 18.0156C66.0077 17.651 66.4504 17.4687 66.966 17.4687C67.466 17.4687 67.9035 17.651 68.2785 18.0156C68.6535 18.3802 68.841 18.8177 68.841 19.3281C68.841 19.6719 68.7525 19.987 68.5754 20.2734C68.4035 20.5547 68.1769 20.7812 67.8957 20.9531C67.6144 21.1198 67.3045 21.2031 66.966 21.2031ZM71.5734 21V9H74.7453V11.1172H74.8859C75.1359 10.4141 75.5526 9.85937 76.1359 9.45312C76.7193 9.04687 77.4172 8.84375 78.2297 8.84375C79.0526 8.84375 79.7531 9.04948 80.3312 9.46094C80.9094 9.86719 81.2948 10.4193 81.4875 11.1172H81.6125C81.8573 10.4297 82.3 9.88021 82.9406 9.46875C83.5864 9.05208 84.3495 8.84375 85.2297 8.84375C86.3495 8.84375 87.2583 9.20052 87.9562 9.91406C88.6594 10.6224 89.0109 11.6276 89.0109 12.9297V21H85.6906V13.5859C85.6906 12.9193 85.5135 12.4193 85.1594 12.0859C84.8052 11.7526 84.3625 11.5859 83.8312 11.5859C83.2271 11.5859 82.7557 11.7786 82.4172 12.1641C82.0786 12.5443 81.9094 13.0469 81.9094 13.6719V21H78.6828V13.5156C78.6828 12.9271 78.5135 12.4583 78.175 12.1094C77.8417 11.7604 77.4016 11.5859 76.8547 11.5859C76.4849 11.5859 76.1516 11.6797 75.8547 11.8672C75.563 12.0495 75.3312 12.3073 75.1594 12.6406C74.9875 12.9687 74.9016 13.3542 74.9016 13.7969V21H71.5734ZM97.1086 21.2344C95.8742 21.2344 94.8117 20.9844 93.9211 20.4844C93.0357 19.9792 92.3534 19.2656 91.8742 18.3437C91.395 17.4167 91.1555 16.3203 91.1555 15.0547C91.1555 13.8203 91.395 12.737 91.8742 11.8047C92.3534 10.8724 93.0279 10.1458 93.8976 9.625C94.7726 9.10417 95.7987 8.84375 96.9758 8.84375C97.7674 8.84375 98.5044 8.97135 99.1867 9.22656C99.8742 9.47656 100.473 9.85417 100.984 10.3594C101.499 10.8646 101.9 11.5 102.187 12.2656C102.473 13.026 102.616 13.9167 102.616 14.9375V15.8516H92.4836V13.7891H99.4836C99.4836 13.3099 99.3794 12.8854 99.1711 12.5156C98.9627 12.1458 98.6737 11.8568 98.3039 11.6484C97.9393 11.4349 97.5148 11.3281 97.0305 11.3281C96.5252 11.3281 96.0773 11.4453 95.6867 11.6797C95.3013 11.9089 94.9992 12.2187 94.7805 12.6094C94.5617 12.9948 94.4497 13.4245 94.4445 13.8984V15.8594C94.4445 16.4531 94.5539 16.9661 94.7726 17.3984C94.9966 17.8307 95.3117 18.1641 95.718 18.3984C96.1242 18.6328 96.606 18.75 97.1633 18.75C97.5331 18.75 97.8716 18.6979 98.1789 18.5938C98.4862 18.4896 98.7492 18.3333 98.968 18.125C99.1867 17.9167 99.3534 17.6615 99.468 17.3594L102.546 17.5625C102.39 18.3021 102.07 18.9479 101.585 19.5C101.106 20.0469 100.486 20.474 99.7258 20.7813C98.9706 21.0833 98.0982 21.2344 97.1086 21.2344Z" fill="#89C5CC"/>
</svg>
